<?xml version="1.0" encoding="utf-8"?>
<!-- Generator: Adobe Illustrator 19.2.1, SVG Export Plug-In . SVG Version: 6.00 Build 0)  -->
<svg version="1.1" xmlns="http://www.w3.org/2000/svg" xmlns:xlink="http://www.w3.org/1999/xlink" x="0px" y="0px"
	 viewBox="0 0 240 100" style="enable-background:new 0 0 240 100;" xml:space="preserve">
<style type="text/css">
	.st0{display:none;}
	.st1{display:inline;}
	.st2{fill:none;}
	.st3{fill:none;stroke:#FFFFFF;stroke-width:3;stroke-linejoin:round;}
	.st4{fill:none;stroke:#FFFFFF;stroke-width:3;stroke-linejoin:round;stroke-dasharray:10.939,10.939;}
	.st5{fill:none;stroke:#FFFFFF;stroke-width:3;stroke-linejoin:round;stroke-dasharray:10.9389,10.9389;}
	.st6{fill:none;stroke:#FFFFFF;stroke-width:3;stroke-linejoin:round;stroke-miterlimit:10;}
	.st7{fill:none;stroke:#FFFFFF;stroke-width:3;stroke-linejoin:round;stroke-dasharray:7.7941,7.7941;}
</style>
<g id="Layer_1" class="st0">
	<rect class="st1" width="240" height="100"/>
</g>
<g id="Layer_2">
	<polygon class="st2" points="119,40.5 77.6,23.2 77.6,58.6 119,58.6 	"/>
	<polygon class="st2" points="119,58.6 160.4,58.6 160.4,23.2 119,40.5 	"/>
	<g>
		<g>
			<polyline class="st3" points="154.8,25.5 160.4,23.2 154.8,20.9 			"/>
			<line class="st4" x1="144.7" y1="16.7" x2="129.6" y2="10.4"/>
			<polyline class="st3" points="124.5,8.3 119,6 113.5,8.3 			"/>
			<line class="st5" x1="103.4" y1="12.5" x2="88.2" y2="18.8"/>
			<polyline class="st3" points="83.2,20.9 77.6,23.2 83.2,25.5 			"/>
			<line class="st5" x1="93.3" y1="29.8" x2="108.4" y2="36.1"/>
			<polyline class="st3" points="113.5,38.2 119,40.5 124.5,38.2 			"/>
			<line class="st5" x1="134.6" y1="34" x2="149.8" y2="27.7"/>
		</g>
	</g>
	<polygon class="st6" points="119,94 160.4,76.7 160.4,58.6 119,58.6 	"/>
	<polyline class="st6" points="187.8,58.6 160.4,58.6 160.4,76.7 119,94 77.6,76.7 77.6,58.6 52.4,58.6 	"/>
	<polygon class="st6" points="119,94 119,58.6 77.6,58.6 77.6,76.7 	"/>
	<g>
		<g>
			<line class="st3" x1="77.6" y1="23.2" x2="77.6" y2="29.2"/>
			<line class="st7" x1="77.6" y1="37" x2="77.6" y2="48.7"/>
			<line class="st3" x1="77.6" y1="52.6" x2="77.6" y2="58.6"/>
		</g>
	</g>
	<g>
		<g>
			<line class="st3" x1="160.4" y1="23.2" x2="160.4" y2="29.2"/>
			<line class="st7" x1="160.4" y1="37" x2="160.4" y2="48.7"/>
			<line class="st3" x1="160.4" y1="52.6" x2="160.4" y2="58.6"/>
		</g>
	</g>
</g>
</svg>
