<?xml version="1.0" encoding="utf-8"?>
<!-- Generator: Adobe Illustrator 19.2.1, SVG Export Plug-In . SVG Version: 6.00 Build 0)  -->
<svg version="1.1" xmlns="http://www.w3.org/2000/svg" xmlns:xlink="http://www.w3.org/1999/xlink" x="0px" y="0px"
	 viewBox="0 0 240 100" style="enable-background:new 0 0 240 100;" xml:space="preserve">
<style type="text/css">
	.st0{display:none;}
	.st1{display:inline;}
	.st2{fill:none;stroke:#FFFFFF;stroke-width:3;stroke-miterlimit:10;}
</style>
<g id="Layer_1" class="st0">
	<rect class="st1" width="240" height="100"/>
</g>
<g id="Layer_2">
	<g>
		<path class="st2" d="M94.9,27.4v-1.2c0-11.9,3.6-21.7,8-21.7h34.1c4.4,0,8,9.8,8,21.7v1.2H94.9z"/>
		<rect x="86" y="27.4" class="st2" width="68" height="68"/>
		<path class="st2" d="M61,11.7c-2.4,0-4.3,1.9-4.3,4.3c0,2.4,1.9,4.3,4.3,4.3h34.2c0.3-3.2,1-6.2,1.8-8.6H61z"/>
		<path class="st2" d="M179,11.7h-36c0.8,2.4,1.4,5.4,1.8,8.6H179c2.4,0,4.3-1.9,4.3-4.3C183.3,13.6,181.3,11.7,179,11.7z"/>
	</g>
</g>
</svg>
